<?xml version="1.0" standalone="no"?>
<!DOCTYPE svg PUBLIC "-//W3C//DTD SVG 20010904//EN"
 "http://www.w3.org/TR/2001/REC-SVG-20010904/DTD/svg10.dtd">
<svg version="1.0" xmlns="http://www.w3.org/2000/svg"
 width="641.000000pt" height="724.000000pt" viewBox="0 0 641.000000 724.000000"
 preserveAspectRatio="xMidYMid meet">
<metadata>
Created by potrace 1.15, written by Peter Selinger 2001-2017
</metadata>
<g transform="translate(0.000000,724.000000) scale(0.100000,-0.100000)"
fill="#000000" stroke="none">
<path d="M3195 7214 c-2006 -61 -3089 -102 -3172 -120 l-23 -4 0 -3545 0
-3545 2768 0 2767 1 77 87 c473 535 720 1073 777 1692 65 695 -163 1513 -690
2477 -212 389 -401 698 -912 1489 -501 778 -630 986 -822 1327 l-89 157 -131
-1 c-71 -1 -319 -8 -550 -15z"/>
</g>
</svg>
